# xmcd
#
# Track frame offsets:
# 150
# 15446
# 34266
# 44053
# 59334
# 73956
# 92910
# 105209
# 127145
# 143439
# 158932
# 174201
# 186220
# 203567
# 215003
# 230257
# 240584
# 255429
# 272333
# 283575
#
# Disc length: 3968 seconds
#
#
# Revision: 0
# Processed by: cddbd v1.5.1PL2 Copyright (c) Steve Scherf et al.
# Submitted via: FreeRIP 2.945 
#
DISCID=180f7e14
DTITLE=Milionario e Jose Rico - As 20 mais
DYEAR=1900
DGENRE=Sertanejo
TTITLE0=Voce agora vai decidir
TTITLE1=De cara com a saudade
TTITLE2=Estrada da vida
TTITLE3=O dono do mundo
TTITLE4=To de olho
TTITLE5=A carta
TTITLE6=Vinte anos
TTITLE7=Lembrancas
TTITLE8=Viva a vida
TTITLE9=Amor de minha vida
TTITLE10=Jogo do amor
TTITLE11=Destino cruel
TTITLE12=Praia deserta
TTITLE13=O tropeiro
TTITLE14=Lenha molhada
TTITLE15=Amigo
TTITLE16=Livro da vida
TTITLE17=Nenhuma esperanca
TTITLE18=Sentimental de mais
TTITLE19=A fossa
EXTD=
EXTT0=
EXTT1=
EXTT2=
EXTT3=
EXTT4=
EXTT5=
EXTT6=
EXTT7=
EXTT8=
EXTT9=
EXTT10=
EXTT11=
EXTT12=
EXTT13=
EXTT14=
EXTT15=
EXTT16=
EXTT17=
EXTT18=
EXTT19=
PLAYORDER=
